<svg xmlns="http://www.w3.org/2000/svg" viewBox="0 0 1330 1790" font-family="Helvetica,Arial,sans-serif">
<rect x="0" y="0" width="1330" height="1790" fill="#ffffff"/>
<text x="40" y="36" font-size="22" font-weight="bold" fill="#14532d">AgriRover - To-Scale Chassis Layout (top view, 1.5 px/mm)</text>
<text x="40" y="56" font-size="12" fill="#5b6b63">Double-decker chassis 450 x 320 mm. Each part drawn at real footprint (W x H mm). Front = top.</text>
<line x1="1070" y1="46" x2="1220" y2="46" stroke="#14532d" stroke-width="3"/>
<text x="1145" y="40" font-size="11" text-anchor="middle" fill="#14532d">100 mm</text>
<g transform="translate(70,80)"><text x="240" y="-30" font-size="15" font-weight="bold" text-anchor="middle" fill="#14532d">1. UNDERSIDE (ground-facing)</text><text x="240" y="-10" font-size="10" text-anchor="middle" fill="#5b6b63">FRONT</text><text x="240" y="697" font-size="10" text-anchor="middle" fill="#5b6b63">REAR</text><text x="-14" y="338" font-size="10" text-anchor="middle" fill="#5b6b63" transform="rotate(-90 -14 338)">LEFT</text><text x="496" y="338" font-size="10" text-anchor="middle" fill="#5b6b63" transform="rotate(90 496 338)">RIGHT</text><rect x="-36" y="108" width="40" height="98" rx="3" fill="#455A64" stroke="#263238"/><rect x="476" y="108" width="40" height="98" rx="3" fill="#455A64" stroke="#263238"/><rect x="-36" y="468" width="40" height="98" rx="3" fill="#455A64" stroke="#263238"/><rect x="476" y="468" width="40" height="98" rx="3" fill="#455A64" stroke="#263238"/><rect x="0" y="0" width="480" height="675" rx="10" fill="#ffffff" stroke="#37474f" stroke-width="2.5"/><line x1="240" y1="0" x2="240" y2="675" stroke="#e0e0e0" stroke-dasharray="4 4"/><line x1="0" y1="338" x2="480" y2="338" stroke="#e0e0e0" stroke-dasharray="4 4"/><text x="243" y="334" font-size="7" fill="#9e9e9e">CoG</text><rect x="206" y="6" width="68" height="30" rx="2" fill="#CFD8DC" stroke="#546E7A" stroke-width="1"/><text x="239" y="23" font-size="7" text-anchor="middle" fill="#14202b">HC-SR04 front</text><rect x="24" y="105" width="56" height="105" rx="2" fill="#F4A6B0" stroke="#C62828" stroke-width="1"/><text x="52" y="156" font-size="9" text-anchor="middle" fill="#14202b">Motor FL</text><text x="52" y="166" font-size="6" text-anchor="middle" fill="#37474f">37x70</text><rect x="400" y="105" width="56" height="105" rx="2" fill="#F4A6B0" stroke="#C62828" stroke-width="1"/><text x="428" y="156" font-size="9" text-anchor="middle" fill="#14202b">Motor FR</text><text x="428" y="166" font-size="6" text-anchor="middle" fill="#37474f">37x70</text><rect x="24" y="465" width="56" height="105" rx="2" fill="#F4A6B0" stroke="#C62828" stroke-width="1"/><text x="52" y="516" font-size="9" text-anchor="middle" fill="#14202b">Motor RL +enc</text><text x="52" y="526" font-size="6" text-anchor="middle" fill="#37474f">37x70</text><rect x="400" y="465" width="56" height="105" rx="2" fill="#F4A6B0" stroke="#C62828" stroke-width="1"/><text x="428" y="516" font-size="9" text-anchor="middle" fill="#14202b">Motor RR +enc</text><text x="428" y="526" font-size="6" text-anchor="middle" fill="#37474f">37x70</text><rect x="188" y="180" width="105" height="90" rx="2" fill="#CFD8DC" stroke="#546E7A" stroke-width="1"/><text x="240" y="223" font-size="9" text-anchor="middle" fill="#14202b">Cutter / weeder</text><text x="240" y="234" font-size="6" text-anchor="middle" fill="#37474f">70x60</text><rect x="210" y="450" width="60" height="60" rx="2" fill="#F4A6B0" stroke="#C62828" stroke-width="1"/><text x="240" y="478" font-size="9" text-anchor="middle" fill="#14202b">Linear actuator 150N</text><text x="240" y="489" font-size="6" text-anchor="middle" fill="#37474f">40x40</text><rect x="206" y="518" width="68" height="68" rx="2" fill="#A5D6A7" stroke="#2E7D32" stroke-width="1"/><text x="239" y="549" font-size="9" text-anchor="middle" fill="#14202b">NPK probe head</text><text x="239" y="560" font-size="6" text-anchor="middle" fill="#37474f">45x45</text><rect x="206" y="639" width="68" height="30" rx="2" fill="#CFD8DC" stroke="#546E7A" stroke-width="1"/><text x="239" y="656" font-size="7" text-anchor="middle" fill="#14202b">HC-SR04 rear</text><text x="240" y="715" font-size="9" text-anchor="middle" fill="#37474f">chassis 320 x 450 mm</text></g>
<g transform="translate(670.0,80)"><text x="240" y="-30" font-size="15" font-weight="bold" text-anchor="middle" fill="#14532d">2. LOWER DECK - power / drive / fluid</text><text x="240" y="-10" font-size="10" text-anchor="middle" fill="#5b6b63">FRONT</text><text x="240" y="697" font-size="10" text-anchor="middle" fill="#5b6b63">REAR</text><text x="-14" y="338" font-size="10" text-anchor="middle" fill="#5b6b63" transform="rotate(-90 -14 338)">LEFT</text><text x="496" y="338" font-size="10" text-anchor="middle" fill="#5b6b63" transform="rotate(90 496 338)">RIGHT</text><rect x="0" y="0" width="480" height="675" rx="10" fill="#ffffff" stroke="#37474f" stroke-width="2.5"/><line x1="240" y1="0" x2="240" y2="675" stroke="#e0e0e0" stroke-dasharray="4 4"/><line x1="0" y1="338" x2="480" y2="338" stroke="#e0e0e0" stroke-dasharray="4 4"/><text x="243" y="334" font-size="7" fill="#9e9e9e">CoG</text><rect x="15" y="12" width="30" height="30" rx="2" fill="#F6C27A" stroke="#B26A00" stroke-width="1"/><text x="48" y="29" font-size="6" text-anchor="start" fill="#14202b">Rocker SW 20x20</text><rect x="51" y="15" width="33" height="24" rx="2" fill="#F6C27A" stroke="#B26A00" stroke-width="1"/><text x="87" y="29" font-size="6" text-anchor="start" fill="#14202b">XT60 22x16</text><rect x="15" y="48" width="45" height="24" rx="2" fill="#F6C27A" stroke="#B26A00" stroke-width="1"/><text x="38" y="62" font-size="7" text-anchor="middle" fill="#14202b">Fuse 30A</text><rect x="15" y="81" width="64" height="32" rx="2" fill="#F6C27A" stroke="#B26A00" stroke-width="1"/><text x="47" y="99" font-size="7" text-anchor="middle" fill="#14202b">LM2596 buck</text><rect x="90" y="81" width="39" height="27" rx="2" fill="#F6C27A" stroke="#B26A00" stroke-width="1"/><text x="110" y="96" font-size="7" text-anchor="middle" fill="#14202b">INA219</text><rect x="15" y="120" width="63" height="27" rx="2" fill="#F6C27A" stroke="#B26A00" stroke-width="1"/><text x="46" y="136" font-size="7" text-anchor="middle" fill="#14202b">Screw bus</text><rect x="158" y="27" width="90" height="60" rx="2" fill="#9AD0EC" stroke="#1565C0" stroke-width="1"/><text x="202" y="55" font-size="9" text-anchor="middle" fill="#14202b">Pump</text><text x="202" y="66" font-size="6" text-anchor="middle" fill="#37474f">60x40</text><rect x="267" y="18" width="135" height="105" rx="2" fill="#9AD0EC" stroke="#1565C0" stroke-width="1"/><text x="334" y="68" font-size="9" text-anchor="middle" fill="#14202b">Fertilizer tank 500ml</text><text x="334" y="80" font-size="6" text-anchor="middle" fill="#37474f">90x70</text><rect x="375" y="27" width="24" height="24" rx="2" fill="#9AD0EC" stroke="#1565C0" stroke-width="1"/><text x="402" y="41" font-size="6" text-anchor="start" fill="#14202b">Float 16x16</text><rect x="15" y="225" width="105" height="210" rx="2" fill="#F6C27A" stroke="#B26A00" stroke-width="1"/><text x="68" y="328" font-size="9" text-anchor="middle" fill="#14202b">Power bank 10Ah</text><text x="68" y="339" font-size="6" text-anchor="middle" fill="#37474f">70x140</text><rect x="225" y="248" width="51" height="158" rx="2" fill="#F6C27A" stroke="#B26A00" stroke-width="1"/><text x="250" y="324" font-size="9" text-anchor="middle" fill="#14202b">LiPo 3S 2200mAh</text><text x="250" y="335" font-size="6" text-anchor="middle" fill="#37474f">34x105</text><rect x="375" y="225" width="76" height="58" rx="2" fill="#F4A6B0" stroke="#C62828" stroke-width="1"/><text x="413" y="252" font-size="9" text-anchor="middle" fill="#14202b">2-ch Relay</text><text x="413" y="263" font-size="6" text-anchor="middle" fill="#37474f">51x39</text><rect x="375" y="450" width="51" height="33" rx="2" fill="#F4A6B0" stroke="#C62828" stroke-width="1"/><text x="400" y="468" font-size="7" text-anchor="middle" fill="#14202b">ACS712 x2</text><rect x="142" y="558" width="75" height="75" rx="2" fill="#F4A6B0" stroke="#C62828" stroke-width="1"/><text x="180" y="594" font-size="9" text-anchor="middle" fill="#14202b">BTS7960 #1</text><text x="180" y="604" font-size="6" text-anchor="middle" fill="#37474f">50x50</text><rect x="262" y="558" width="75" height="75" rx="2" fill="#F4A6B0" stroke="#C62828" stroke-width="1"/><text x="300" y="594" font-size="9" text-anchor="middle" fill="#14202b">BTS7960 #2</text><text x="300" y="604" font-size="6" text-anchor="middle" fill="#37474f">50x50</text><text x="240" y="715" font-size="9" text-anchor="middle" fill="#37474f">chassis 320 x 450 mm</text></g>
<g transform="translate(70,875.0)"><text x="240" y="-30" font-size="15" font-weight="bold" text-anchor="middle" fill="#14532d">3. UPPER DECK - compute / sensors / UI</text><text x="240" y="-10" font-size="10" text-anchor="middle" fill="#5b6b63">FRONT</text><text x="240" y="697" font-size="10" text-anchor="middle" fill="#5b6b63">REAR</text><text x="-14" y="338" font-size="10" text-anchor="middle" fill="#5b6b63" transform="rotate(-90 -14 338)">LEFT</text><text x="496" y="338" font-size="10" text-anchor="middle" fill="#5b6b63" transform="rotate(90 496 338)">RIGHT</text><rect x="0" y="0" width="480" height="675" rx="10" fill="#ffffff" stroke="#37474f" stroke-width="2.5"/><line x1="240" y1="0" x2="240" y2="675" stroke="#e0e0e0" stroke-dasharray="4 4"/><line x1="0" y1="338" x2="480" y2="338" stroke="#e0e0e0" stroke-dasharray="4 4"/><text x="243" y="334" font-size="7" fill="#9e9e9e">CoG</text><rect x="36" y="36" width="82" height="42" rx="2" fill="#90CAF9" stroke="#0D47A1" stroke-width="1"/><text x="77" y="55" font-size="9" text-anchor="middle" fill="#14202b">ESP32 DevKit</text><text x="77" y="66" font-size="6" text-anchor="middle" fill="#37474f">55x28</text><rect x="36" y="99" width="60" height="40" rx="2" fill="#90CAF9" stroke="#0D47A1" stroke-width="1"/><text x="66" y="117" font-size="9" text-anchor="middle" fill="#14202b">ESP32-CAM pcb</text><text x="66" y="128" font-size="6" text-anchor="middle" fill="#37474f">40x27</text><rect x="180" y="27" width="128" height="84" rx="2" fill="#90CAF9" stroke="#0D47A1" stroke-width="1"/><text x="244" y="67" font-size="9" text-anchor="middle" fill="#14202b">Raspberry Pi 4</text><text x="244" y="78" font-size="6" text-anchor="middle" fill="#37474f">85x56</text><rect x="327" y="30" width="98" height="45" rx="2" fill="#90CAF9" stroke="#0D47A1" stroke-width="1"/><text x="376" y="50" font-size="9" text-anchor="middle" fill="#14202b">Coral TPU</text><text x="376" y="62" font-size="6" text-anchor="middle" fill="#37474f">65x30</text><rect x="222" y="120" width="45" height="45" rx="2" fill="#90CAF9" stroke="#0D47A1" stroke-width="1"/><text x="244" y="140" font-size="9" text-anchor="middle" fill="#14202b">30mm fan</text><text x="244" y="152" font-size="6" text-anchor="middle" fill="#37474f">30x30</text><rect x="180" y="225" width="120" height="87" rx="2" fill="#A5D6A7" stroke="#2E7D32" stroke-width="1"/><text x="240" y="266" font-size="9" text-anchor="middle" fill="#14202b">I2C board: MPU6050(Co.</text><text x="240" y="278" font-size="6" text-anchor="middle" fill="#37474f">80x58</text><rect x="321" y="240" width="33" height="22" rx="2" fill="#A5D6A7" stroke="#2E7D32" stroke-width="1"/><text x="357" y="253" font-size="6" text-anchor="start" fill="#14202b">MAX485 22x15</text><rect x="369" y="240" width="27" height="24" rx="2" fill="#90CAF9" stroke="#0D47A1" stroke-width="1"/><text x="399" y="254" font-size="6" text-anchor="start" fill="#14202b">LoRa SX1276 18x16</text><rect x="27" y="567" width="40" height="40" rx="2" fill="#FFD54F" stroke="#B26A00" stroke-width="1"/><text x="47" y="585" font-size="9" text-anchor="middle" fill="#14202b">OLED 0.96</text><text x="47" y="596" font-size="6" text-anchor="middle" fill="#37474f">27x27</text><rect x="99" y="573" width="30" height="30" rx="2" fill="#FFD54F" stroke="#B26A00" stroke-width="1"/><text x="132" y="590" font-size="6" text-anchor="start" fill="#14202b">Mode SW 20x20</text><rect x="150" y="579" width="75" height="21" rx="2" fill="#FFD54F" stroke="#B26A00" stroke-width="1"/><text x="188" y="592" font-size="7" text-anchor="middle" fill="#14202b">Buttons x4</text><rect x="270" y="567" width="42" height="42" rx="2" fill="#FFD54F" stroke="#B26A00" stroke-width="1"/><text x="291" y="586" font-size="9" text-anchor="middle" fill="#14202b">E-STOP</text><text x="291" y="597" font-size="6" text-anchor="middle" fill="#37474f">28x28</text><text x="240" y="715" font-size="9" text-anchor="middle" fill="#37474f">chassis 320 x 450 mm</text></g>
<g transform="translate(670.0,875.0)"><text x="240" y="-30" font-size="15" font-weight="bold" text-anchor="middle" fill="#14532d">4. TOP and MAST (above upper deck)</text><text x="240" y="-10" font-size="10" text-anchor="middle" fill="#5b6b63">FRONT</text><text x="240" y="697" font-size="10" text-anchor="middle" fill="#5b6b63">REAR</text><text x="-14" y="338" font-size="10" text-anchor="middle" fill="#5b6b63" transform="rotate(-90 -14 338)">LEFT</text><text x="496" y="338" font-size="10" text-anchor="middle" fill="#5b6b63" transform="rotate(90 496 338)">RIGHT</text><rect x="0" y="0" width="480" height="675" rx="10" fill="#ffffff" stroke="#37474f" stroke-width="2.5"/><line x1="240" y1="0" x2="240" y2="675" stroke="#e0e0e0" stroke-dasharray="4 4"/><line x1="0" y1="338" x2="480" y2="338" stroke="#e0e0e0" stroke-dasharray="4 4"/><text x="243" y="334" font-size="7" fill="#9e9e9e">CoG</text><rect x="210" y="18" width="38" height="38" rx="2" fill="#A5D6A7" stroke="#2E7D32" stroke-width="1"/><text x="229" y="39" font-size="7" text-anchor="middle" fill="#14202b">GPS Neo-6M</text><rect x="432" y="18" width="15" height="105" rx="2" fill="#90CAF9" stroke="#0D47A1" stroke-width="1"/><text x="450" y="72" font-size="6" text-anchor="start" fill="#14202b">LoRa antenna 10x70</text><rect x="225" y="117" width="34" height="18" rx="2" fill="#CFD8DC" stroke="#546E7A" stroke-width="1"/><text x="242" y="128" font-size="6" text-anchor="middle" fill="#14202b">US sweep SG90</text><rect x="220" y="177" width="39" height="36" rx="2" fill="#A5D6A7" stroke="#2E7D32" stroke-width="1"/><text x="240" y="197" font-size="7" text-anchor="middle" fill="#14202b">Pi Camera + 160 lens</text><rect x="60" y="90" width="22" height="42" rx="2" fill="#A5D6A7" stroke="#2E7D32" stroke-width="1"/><text x="86" y="113" font-size="6" text-anchor="start" fill="#14202b">DHT22 15x28</text><rect x="360" y="180" width="60" height="45" rx="2" fill="#A5D6A7" stroke="#2E7D32" stroke-width="1"/><text x="390" y="200" font-size="9" text-anchor="middle" fill="#14202b">Rain sensor</text><text x="390" y="212" font-size="6" text-anchor="middle" fill="#37474f">40x30</text><text x="240" y="715" font-size="9" text-anchor="middle" fill="#37474f">chassis 320 x 450 mm</text></g>
<text x="40" y="1746" font-size="12" font-weight="bold" fill="#14532d">Legend:</text>
<rect x="110" y="1738" width="16" height="12" fill="#F6C27A" stroke="#B26A00"/>
<text x="130" y="1748" font-size="11" fill="#1a2421">Power</text>
<rect x="185" y="1738" width="16" height="12" fill="#F4A6B0" stroke="#C62828"/>
<text x="205" y="1748" font-size="11" fill="#1a2421">Drive/Motor</text>
<rect x="302" y="1738" width="16" height="12" fill="#9AD0EC" stroke="#1565C0"/>
<text x="322" y="1748" font-size="11" fill="#1a2421">Fluid/Dosing</text>
<rect x="426" y="1738" width="16" height="12" fill="#90CAF9" stroke="#0D47A1"/>
<text x="446" y="1748" font-size="11" fill="#1a2421">Compute/Comms</text>
<rect x="557" y="1738" width="16" height="12" fill="#A5D6A7" stroke="#2E7D32"/>
<text x="577" y="1748" font-size="11" fill="#1a2421">Sensor</text>
<rect x="639" y="1738" width="16" height="12" fill="#FFD54F" stroke="#B26A00"/>
<text x="659" y="1748" font-size="11" fill="#1a2421">UI/Safety</text>
<rect x="742" y="1738" width="16" height="12" fill="#CFD8DC" stroke="#546E7A"/>
<text x="762" y="1748" font-size="11" fill="#1a2421">Mechanical</text>
</svg>